<svg width="114" height="114" viewBox="0 0 114 114" fill="none" xmlns="http://www.w3.org/2000/svg">
<g clip-path="url(#clip0_1_96)">
<path d="M52.86 25.98L55.02 13.86" stroke="white" stroke-width="1.08" stroke-linecap="round" stroke-linejoin="round"/>
<path d="M45.06 29.7L55.14 31.5" stroke="white" stroke-width="1.08" stroke-linecap="round" stroke-linejoin="round"/>
<path d="M45.18 29.22L45.06 29.7" stroke="white" stroke-width="1.08" stroke-linecap="round" stroke-linejoin="round"/>
<path d="M51.18 13.14L49.02 25.38" stroke="white" stroke-width="1.08" stroke-linecap="round" stroke-linejoin="round"/>
<path d="M48.9 7.73999V8.21999" stroke="white" stroke-width="1.08" stroke-linecap="round" stroke-linejoin="round"/>
<path d="M58.98 9.41999L48.9 7.73999" stroke="white" stroke-width="1.08" stroke-linecap="round" stroke-linejoin="round"/>
<path d="M13.02 55.98L24.9 59.22" stroke="white" stroke-width="1.08" stroke-linecap="round" stroke-linejoin="round"/>
<path d="M30.18 57.3L30.66 57.42" stroke="white" stroke-width="1.08" stroke-linecap="round" stroke-linejoin="round"/>
<path d="M6.77999 61.62L6.29999 61.5" stroke="white" stroke-width="1.08" stroke-linecap="round" stroke-linejoin="round"/>
<path d="M36.3 34.02L36.9 34.14" stroke="white" stroke-width="1.08" stroke-linecap="round" stroke-linejoin="round"/>
<path d="M30.66 57.42L28.02 67.26" stroke="white" stroke-width="1.08" stroke-linecap="round" stroke-linejoin="round"/>
<path d="M34.26 44.1L33.66 43.86" stroke="white" stroke-width="1.08" stroke-linecap="round" stroke-linejoin="round"/>
<path d="M30.18 39.66L18.18 36.42" stroke="white" stroke-width="1.08" stroke-linecap="round" stroke-linejoin="round"/>
<path d="M58.86 10.02L58.98 9.41998" stroke="white" stroke-width="1.08" stroke-linecap="round" stroke-linejoin="round"/>
<path d="M8.94 51.66L9.54 51.78" stroke="white" stroke-width="1.08" stroke-linecap="round" stroke-linejoin="round"/>
<path d="M13.02 38.34L12.54 38.22" stroke="white" stroke-width="1.08" stroke-linecap="round" stroke-linejoin="round"/>
<path d="M16.14 44.34L28.02 47.58" stroke="white" stroke-width="1.08" stroke-linecap="round" stroke-linejoin="round"/>
<path d="M33.3 45.66L33.78 45.78" stroke="white" stroke-width="1.08" stroke-linecap="round" stroke-linejoin="round"/>
<path d="M33.78 45.78L31.14 55.62" stroke="white" stroke-width="1.08" stroke-linecap="round" stroke-linejoin="round"/>
<path d="M31.14 55.62L30.54 55.5" stroke="white" stroke-width="1.08" stroke-linecap="round" stroke-linejoin="round"/>
<path d="M9.89998 49.98L9.41998 49.86" stroke="white" stroke-width="1.08" stroke-linecap="round" stroke-linejoin="round"/>
<path d="M55.14 31.5L55.26 31.02" stroke="white" stroke-width="1.08" stroke-linecap="round" stroke-linejoin="round"/>
<path d="M9.41998 49.86L12.06 40.02" stroke="white" stroke-width="1.08" stroke-linecap="round" stroke-linejoin="round"/>
<path d="M15.18 28.38L15.66 28.5" stroke="white" stroke-width="1.08" stroke-linecap="round" stroke-linejoin="round"/>
<path d="M46.74 99.18L52.02 88.02" stroke="white" stroke-width="1.08" stroke-linecap="round" stroke-linejoin="round"/>
<path d="M56.9399 84.78L47.7 80.46" stroke="white" stroke-width="1.08" stroke-linecap="round" stroke-linejoin="round"/>
<path d="M12.54 38.22L15.18 28.38" stroke="white" stroke-width="1.08" stroke-linecap="round" stroke-linejoin="round"/>
<path d="M56.8199 85.26L56.9399 84.78" stroke="white" stroke-width="1.08" stroke-linecap="round" stroke-linejoin="round"/>
<path d="M35.8199 94.14L41.0999 82.86" stroke="white" stroke-width="1.08" stroke-linecap="round" stroke-linejoin="round"/>
<path d="M48.54 86.34L43.2599 97.62" stroke="white" stroke-width="1.08" stroke-linecap="round" stroke-linejoin="round"/>
<path d="M36.66 100.02L36.9 99.54" stroke="white" stroke-width="1.08" stroke-linecap="round" stroke-linejoin="round"/>
<path d="M27.42 95.7L36.66 100.02" stroke="white" stroke-width="1.08" stroke-linecap="round" stroke-linejoin="round"/>
<path d="M37.62 81.3L32.34 92.46" stroke="white" stroke-width="1.08" stroke-linecap="round" stroke-linejoin="round"/>
<path d="M36.78 75.42L36.66 75.9" stroke="white" stroke-width="1.08" stroke-linecap="round" stroke-linejoin="round"/>
<path d="M46.14 79.74L36.78 75.42" stroke="white" stroke-width="1.08" stroke-linecap="round" stroke-linejoin="round"/>
<path d="M80.58 77.22L89.34 85.98" stroke="white" stroke-width="1.08" stroke-linecap="round" stroke-linejoin="round"/>
<path d="M38.22 100.74L47.58 105.06" stroke="white" stroke-width="1.08" stroke-linecap="round" stroke-linejoin="round"/>
<path d="M94.74 86.82L95.1 87.18" stroke="white" stroke-width="1.08" stroke-linecap="round" stroke-linejoin="round"/>
<path d="M95.1 87.18L87.9 94.5" stroke="white" stroke-width="1.08" stroke-linecap="round" stroke-linejoin="round"/>
<path d="M19.2599 32.82L31.1399 35.94" stroke="white" stroke-width="1.08" stroke-linecap="round" stroke-linejoin="round"/>
<path d="M87.9 94.5L87.54 94.14" stroke="white" stroke-width="1.08" stroke-linecap="round" stroke-linejoin="round"/>
<path d="M86.7 88.62L77.94 79.86" stroke="white" stroke-width="1.08" stroke-linecap="round" stroke-linejoin="round"/>
<path d="M12.06 40.02L12.54 40.14" stroke="white" stroke-width="1.08" stroke-linecap="round" stroke-linejoin="round"/>
<path d="M27.54 95.22L27.42 95.7" stroke="white" stroke-width="1.08" stroke-linecap="round" stroke-linejoin="round"/>
<path d="M72.06 78.66L79.26 71.34" stroke="white" stroke-width="1.08" stroke-linecap="round" stroke-linejoin="round"/>
<path d="M79.26 71.34L79.62 71.7" stroke="white" stroke-width="1.08" stroke-linecap="round" stroke-linejoin="round"/>
<path d="M6.29999 61.5L8.93999 51.66" stroke="white" stroke-width="1.08" stroke-linecap="round" stroke-linejoin="round"/>
<path d="M36.9 34.14L34.2599 44.1" stroke="white" stroke-width="1.08" stroke-linecap="round" stroke-linejoin="round"/>
<path d="M70.74 29.82L67.26 15.06" stroke="white" stroke-width="1.08" stroke-linecap="round" stroke-linejoin="round"/>
<path d="M77.94 19.02L70.74 29.82" stroke="white" stroke-width="1.08" stroke-linecap="round" stroke-linejoin="round"/>
<path d="M76.14 12.42L76.02 13.02" stroke="white" stroke-width="1.08" stroke-linecap="round" stroke-linejoin="round"/>
<path d="M84.54 13.98L76.14 12.42" stroke="white" stroke-width="1.08" stroke-linecap="round" stroke-linejoin="round"/>
<path d="M27.06 51.3L15.06 48.06" stroke="white" stroke-width="1.08" stroke-linecap="round" stroke-linejoin="round"/>
<path d="M38.46 100.26L38.22 100.74" stroke="white" stroke-width="1.08" stroke-linecap="round" stroke-linejoin="round"/>
<path d="M84.42 14.46L84.54 13.98" stroke="white" stroke-width="1.08" stroke-linecap="round" stroke-linejoin="round"/>
<path d="M47.58 105.06L47.7 104.58" stroke="white" stroke-width="1.08" stroke-linecap="round" stroke-linejoin="round"/>
<path d="M68.46 34.38L78.42 19.38" stroke="white" stroke-width="1.08" stroke-linecap="round" stroke-linejoin="round"/>
<path d="M23.94 62.94L12.06 59.7" stroke="white" stroke-width="1.08" stroke-linecap="round" stroke-linejoin="round"/>
<path d="M47.7 80.46L47.46 80.94" stroke="white" stroke-width="1.08" stroke-linecap="round" stroke-linejoin="round"/>
<path d="M45.9 80.22L46.14 79.74" stroke="white" stroke-width="1.08" stroke-linecap="round" stroke-linejoin="round"/>
<path d="M68.1 34.38H68.46" stroke="white" stroke-width="1.08" stroke-linecap="round" stroke-linejoin="round"/>
<path d="M63.3 15.42L68.1 34.38" stroke="white" stroke-width="1.08" stroke-linecap="round" stroke-linejoin="round"/>
<path d="M28.02 67.26L27.54 67.14" stroke="white" stroke-width="1.08" stroke-linecap="round" stroke-linejoin="round"/>
<path d="M60.18 9.65997L60.06 10.14" stroke="white" stroke-width="1.08" stroke-linecap="round" stroke-linejoin="round"/>
<path d="M70.74 11.58L60.18 9.65997" stroke="white" stroke-width="1.08" stroke-linecap="round" stroke-linejoin="round"/>
<path d="M72.42 79.02L72.06 78.66" stroke="white" stroke-width="1.08" stroke-linecap="round" stroke-linejoin="round"/>
<path d="M70.62 12.06L70.74 11.58" stroke="white" stroke-width="1.08" stroke-linecap="round" stroke-linejoin="round"/>
<path d="M70.26 11.94L70.62 12.06" stroke="white" stroke-width="1.08" stroke-linecap="round" stroke-linejoin="round"/>
<path d="M112.98 56.82C113.08 87.79 87.89 112.98 56.82 113.1C25.75 112.98 0.559978 87.79 0.539978 56.82C0.559978 25.65 25.75 0.459985 56.82 0.539985C87.89 0.459985 113.08 25.65 112.98 56.82Z" stroke="white" stroke-width="1.08" stroke-linecap="round" stroke-linejoin="round"/>
<path d="M60.06 10.14L60.18 10.26H60.3H60.42L60.54 10.38H60.66V10.5H60.78L60.9 10.62H61.02L61.14 10.74L61.26 10.86H61.38V10.98H61.5V11.1H61.62V11.22H61.74V11.34L61.86 11.46L61.98 11.58V11.7H62.1V11.82L62.22 11.94V12.06L62.34 12.18V12.3L62.46 12.42V12.54L62.58 12.66V12.78V12.9L62.7 13.02V13.14L62.82 13.26V13.5V13.62L62.94 13.74V13.86V14.1L63.06 14.22V14.46L63.18 14.58V14.94L63.3 15.18V15.42" stroke="white" stroke-width="1.08" stroke-linecap="round" stroke-linejoin="round"/>
<path d="M78.42 19.38L78.54 19.26L78.78 19.02L78.9 18.78L79.02 18.66L79.14 18.42L79.26 18.18L79.38 18.06L79.5 17.94L79.62 17.82L79.74 17.58L79.86 17.46L79.98 17.34L80.1 17.22L80.22 17.1L80.34 16.98L80.46 16.86L80.58 16.74V16.62L80.7 16.5L80.82 16.38L80.94 16.26L81.06 16.14L81.18 16.02L81.3 15.9L81.42 15.78H81.54L81.66 15.66L81.78 15.54H81.9V15.42H82.02L82.14 15.3L82.26 15.18H82.38L82.5 15.06H82.62L82.74 14.94H82.86H82.98V14.82H83.1H83.22L83.34 14.7H83.46L83.58 14.58H83.7H83.82H83.94H84.06V14.46H84.18H84.3H84.42" stroke="white" stroke-width="1.08" stroke-linecap="round" stroke-linejoin="round"/>
<path d="M76.02 13.02H76.14H76.26L76.38 13.14H76.5L76.62 13.26H76.74H76.86V13.38H76.98L77.1 13.5H77.22L77.34 13.62L77.46 13.74H77.58L77.7 13.86H77.82V13.98H77.94V14.1H78.06L78.18 14.22L78.3 14.34L78.42 14.46V14.58H78.54V14.7H78.66V14.82V14.94H78.78V15.06V15.18H78.9V15.3V15.42V15.54H79.02V15.66V15.78V15.9V16.02V16.14V16.26V16.38V16.5V16.62L78.9 16.74V16.86V16.98V17.1V17.22H78.78V17.34V17.46L78.66 17.58V17.7L78.54 17.82V17.94V18.06H78.42V18.18L78.3 18.3V18.42L78.18 18.54V18.66L78.06 18.78L77.94 18.9V19.02" stroke="white" stroke-width="1.08" stroke-linecap="round" stroke-linejoin="round"/>
<path d="M67.26 15.06H67.14V14.94V14.82V14.7V14.58V14.46V14.34H67.02V14.22V14.1V13.98V13.86V13.74V13.62V13.5L67.14 13.38V13.26V13.14V13.02L67.26 12.9V12.78L67.38 12.66V12.54H67.5V12.42H67.62V12.3H67.74L67.86 12.18H67.98L68.1 12.06H68.22H68.34L68.46 11.94H68.58H68.7H68.82H68.94H69.06H69.18H69.3H69.42H69.54H69.66H69.78H70.02H70.14H70.26" stroke="white" stroke-width="1.08" stroke-linecap="round" stroke-linejoin="round"/>
<path d="M79.62 71.7V71.82V71.94H79.5V72.06L79.38 72.18V72.3L79.26 72.42L79.14 72.54V72.66L79.02 72.78V72.9V73.02L78.9 73.14V73.26V73.38V73.5L78.78 73.62V73.74V73.86V73.98V74.1V74.22V74.34" stroke="white" stroke-width="1.08" stroke-linecap="round" stroke-linejoin="round"/>
<path d="M75.18 78.06H75.06H74.94H74.82H74.7H74.58H74.46H74.34L74.22 78.18H74.1H73.98H73.86V78.3H73.74H73.62H73.5V78.42H73.38H73.26V78.54H73.14H73.02V78.66H72.9H72.78V78.78H72.66L72.54 78.9L72.42 79.02" stroke="white" stroke-width="1.08" stroke-linecap="round" stroke-linejoin="round"/>
<path d="M77.94 79.86L77.82 79.74L77.7 79.62L77.46 79.5L77.34 79.38V79.26H77.22L77.1 79.14L76.98 79.02H76.86L76.74 78.9V78.78H76.62L76.5 78.66H76.38L76.26 78.54L76.14 78.42H76.02V78.3H75.9H75.78L75.66 78.18H75.54H75.42H75.3V78.06H75.18" stroke="white" stroke-width="1.08" stroke-linecap="round" stroke-linejoin="round"/>
<path d="M88.5 91.5H88.38V91.38V91.26V91.14V91.02V90.9L88.26 90.78V90.66V90.54H88.14V90.42L88.02 90.3V90.18H87.9V90.06V89.94H87.78V89.82H87.66L87.54 89.7V89.58L87.42 89.46L87.3 89.34L87.18 89.22L87.06 89.1V88.98L86.94 88.86L86.82 88.74L86.7 88.62" stroke="white" stroke-width="1.08" stroke-linecap="round" stroke-linejoin="round"/>
<path d="M87.54 94.14L87.66 94.02V93.9L87.78 93.78V93.66H87.9V93.54V93.42H88.02V93.3L88.14 93.18V93.06V92.94L88.26 92.82V92.7V92.58H88.38V92.46V92.34V92.22V92.1V91.98L88.5 91.86V91.74V91.62V91.5" stroke="white" stroke-width="1.08" stroke-linecap="round" stroke-linejoin="round"/>
<path d="M91.98 87.78H92.1H92.22H92.34H92.46H92.58H92.7L92.82 87.66H92.94H93.06H93.18H93.3L93.42 87.54H93.54H93.66V87.42H93.78H93.9L94.02 87.3H94.14V87.18H94.26H94.38V87.06H94.5H94.62V86.94H94.74V86.82" stroke="white" stroke-width="1.08" stroke-linecap="round" stroke-linejoin="round"/>
<path d="M89.34 85.98L89.46 86.1L89.58 86.22L89.7 86.34L89.82 86.46H89.94V86.58L90.06 86.7H90.18L90.3 86.82L90.42 86.94L90.54 87.06H90.66V87.18H90.78V87.3H90.9H91.02V87.42H91.14L91.26 87.54H91.38H91.5L91.62 87.66H91.74H91.86H91.98V87.78" stroke="white" stroke-width="1.08" stroke-linecap="round" stroke-linejoin="round"/>
<path d="M78.78 74.34V74.46V74.58V74.7H78.9V74.82V74.94V75.06L79.02 75.18V75.3L79.14 75.42V75.54H79.26V75.66V75.78H79.38V75.9L79.5 76.02L79.62 76.14L79.74 76.26V76.38H79.86L79.98 76.5V76.62L80.1 76.74L80.22 76.86L80.34 76.98L80.46 77.1L80.58 77.22" stroke="white" stroke-width="1.08" stroke-linecap="round" stroke-linejoin="round"/>
<path d="M43.14 80.22H43.26V80.1H43.38H43.5H43.62L43.74 79.98H43.86H43.98H44.1H44.22H44.34H44.46H44.58H44.7H44.82H44.94H45.06H45.18H45.3L45.42 80.1H45.54H45.66H45.78L45.9 80.22" stroke="white" stroke-width="1.08" stroke-linecap="round" stroke-linejoin="round"/>
<path d="M36.66 75.9L36.78 76.02H36.9V76.14H37.02L37.14 76.26L37.26 76.38L37.38 76.5L37.5 76.62L37.62 76.74L37.74 76.86L37.86 76.98V77.1H37.98V77.22L38.1 77.34V77.46L38.22 77.58V77.7V77.82L38.34 77.94V78.06V78.18" stroke="white" stroke-width="1.08" stroke-linecap="round" stroke-linejoin="round"/>
<path d="M38.34 78.18V78.3H38.46V78.42V78.54V78.66V78.78V78.9H38.34V79.02V79.14V79.26V79.38V79.5H38.22V79.62V79.74V79.86V79.98H38.1V80.1V80.22L37.98 80.34V80.46L37.86 80.58V80.7V80.82H37.74V80.94V81.06L37.62 81.18V81.3" stroke="white" stroke-width="1.08" stroke-linecap="round" stroke-linejoin="round"/>
<path d="M32.34 92.46V92.58V92.7H32.22V92.82V92.94L32.1 93.06V93.18H31.98V93.3V93.42L31.86 93.54V93.66H31.74V93.78L31.62 93.9V94.02L31.5 94.14L31.38 94.26V94.38H31.26V94.5L31.14 94.62H31.02V94.74H30.9V94.86H30.78V94.98H30.66L30.54 95.1H30.42H30.3V95.22" stroke="white" stroke-width="1.08" stroke-linecap="round" stroke-linejoin="round"/>
<path d="M30.3 95.22H30.18H30.06L29.94 95.34H29.82H29.7H29.58L29.46 95.46H29.34H29.22H29.1H28.98H28.86H28.74H28.62H28.5V95.34H28.38H28.26H28.14H28.02H27.9L27.78 95.22H27.66H27.54" stroke="white" stroke-width="1.08" stroke-linecap="round" stroke-linejoin="round"/>
<path d="M36.9 99.54H36.78L36.66 99.42H36.54V99.3L36.42 99.18L36.3 99.06H36.18V98.94H36.06V98.82H35.94V98.7H35.82V98.58H35.7V98.46L35.58 98.34L35.46 98.22V98.1H35.34V97.98V97.86L35.22 97.74V97.62L35.1 97.5V97.38V97.26" stroke="white" stroke-width="1.08" stroke-linecap="round" stroke-linejoin="round"/>
<path d="M35.1 97.26V97.14V97.02H34.98V96.9V96.78V96.66V96.54L35.1 96.42V96.3V96.18V96.06V95.94V95.82H35.22V95.7V95.58V95.46H35.34V95.34V95.22L35.46 95.1V94.98V94.86L35.58 94.74V94.62L35.7 94.5V94.38V94.26H35.82V94.14" stroke="white" stroke-width="1.08" stroke-linecap="round" stroke-linejoin="round"/>
<path d="M41.1 82.86V82.74L41.22 82.62V82.5L41.34 82.38V82.26L41.46 82.14V82.02L41.58 81.9V81.78L41.7 81.66V81.54H41.82V81.42L41.94 81.3V81.18H42.06V81.06H42.18V80.94L42.3 80.82L42.42 80.7L42.54 80.58H42.66V80.46H42.78L42.9 80.34H43.02V80.22H43.14" stroke="white" stroke-width="1.08" stroke-linecap="round" stroke-linejoin="round"/>
<path d="M54.06 85.26H54.18H54.3V85.14H54.42H54.54H54.66H54.78L54.9 85.02H55.02H55.14H55.26H55.38H55.5H55.62H55.74H55.86H55.98V85.14H56.1H56.22H56.34H56.46H56.58L56.7 85.26H56.82" stroke="white" stroke-width="1.08" stroke-linecap="round" stroke-linejoin="round"/>
<path d="M47.46 80.94H47.58L47.7 81.06H47.82V81.18H47.94L48.06 81.3L48.18 81.42L48.3 81.54L48.42 81.66L48.54 81.78V81.9H48.66V82.02L48.78 82.14L48.9 82.26V82.38H49.02V82.5V82.62L49.14 82.74V82.86L49.26 82.98V83.1V83.22" stroke="white" stroke-width="1.08" stroke-linecap="round" stroke-linejoin="round"/>
<path d="M49.26 83.22V83.34V83.46V83.58H49.38V83.7H49.26V83.82V83.94V84.06V84.18V84.3V84.42V84.54H49.14V84.66V84.78V84.9L49.02 85.02V85.14V85.26L48.9 85.38V85.5V85.62H48.78V85.74V85.86L48.66 85.98V86.1L48.54 86.22V86.34" stroke="white" stroke-width="1.08" stroke-linecap="round" stroke-linejoin="round"/>
<path d="M43.26 97.62V97.74L43.14 97.86V97.98L43.02 98.1V98.22L42.9 98.34V98.46H42.78V98.58V98.7H42.66V98.82V98.94H42.54V99.06L42.42 99.18V99.3H42.3V99.42H42.18V99.54L42.06 99.66L41.94 99.78L41.82 99.9H41.7V100.02H41.58L41.46 100.14H41.34V100.26H41.22" stroke="white" stroke-width="1.08" stroke-linecap="round" stroke-linejoin="round"/>
<path d="M41.22 100.26H41.1L40.98 100.38H40.86H40.74H40.62V100.5H40.5H40.38H40.26H40.14H40.02H39.9H39.78H39.66H39.54H39.42H39.3H39.18H39.06L38.94 100.38H38.82H38.7H38.58L38.46 100.26" stroke="white" stroke-width="1.08" stroke-linecap="round" stroke-linejoin="round"/>
<path d="M47.7 104.58L47.58 104.46H47.46V104.34H47.34L47.22 104.22L47.1 104.1L46.98 103.98L46.86 103.86L46.74 103.74L46.62 103.62L46.5 103.5V103.38L46.38 103.26V103.14H46.26V103.02L46.14 102.9V102.78V102.66H46.02V102.54V102.42V102.3L45.9 102.18V102.06V101.94V101.82V101.7V101.58V101.46L46.02 101.34V101.22V101.1V100.98V100.86H46.14V100.74V100.62V100.5L46.26 100.38V100.26V100.14H46.38V100.02V99.9H46.5V99.78V99.66L46.62 99.54V99.42L46.74 99.3V99.18" stroke="white" stroke-width="1.08" stroke-linecap="round" stroke-linejoin="round"/>
<path d="M52.02 88.02V87.9V87.78L52.14 87.66V87.54L52.26 87.42V87.3H52.38V87.18V87.06H52.5V86.94V86.82H52.62V86.7L52.74 86.58V86.46H52.86V86.34L52.98 86.22V86.1H53.1V85.98H53.22V85.86H53.34V85.74H53.46V85.62H53.58V85.5H53.7L53.82 85.38H53.94H54.06V85.26" stroke="white" stroke-width="1.08" stroke-linecap="round" stroke-linejoin="round"/>
<path d="M12.54 40.14V40.26V40.38V40.5V40.62V40.74V40.86V40.98V41.1V41.22V41.34L12.66 41.46V41.58V41.7V41.82V41.94H12.78V42.06V42.18V42.3H12.9V42.42L13.02 42.54V42.66L13.14 42.78" stroke="white" stroke-width="1.08" stroke-linecap="round" stroke-linejoin="round"/>
<path d="M11.94 47.82L11.82 47.94H11.7L11.58 48.06H11.46V48.18H11.34L11.22 48.3H11.1V48.42H10.98V48.54H10.86V48.66H10.74V48.78L10.62 48.9L10.5 49.02V49.14H10.38V49.26L10.26 49.38V49.5L10.14 49.62L10.02 49.74V49.86L9.89996 49.98" stroke="white" stroke-width="1.08" stroke-linecap="round" stroke-linejoin="round"/>
<path d="M15.06 48.06H14.94L14.82 47.94H14.58H14.46L14.34 47.82H14.22H14.1H13.86H13.74L13.62 47.7H13.5H13.38H13.26H13.14H13.02H12.9H12.78H12.66H12.54H12.42H12.3L12.18 47.82H12.06H11.94" stroke="white" stroke-width="1.08" stroke-linecap="round" stroke-linejoin="round"/>
<path d="M30.06 52.86V52.74H29.94V52.62H29.82V52.5L29.7 52.38L29.58 52.26H29.46V52.14H29.34L29.22 52.02H29.1L28.98 51.9H28.86V51.78H28.74H28.62H28.5L28.38 51.66H28.26L28.14 51.54H28.02H27.9L27.78 51.42H27.54H27.42L27.3 51.3H27.06" stroke="white" stroke-width="1.08" stroke-linecap="round" stroke-linejoin="round"/>
<path d="M30.54 55.5L30.66 55.38V55.26V55.14V55.02V54.9V54.78V54.66V54.54V54.42L30.54 54.3V54.18V54.06V53.94V53.82L30.42 53.7V53.58V53.46L30.3 53.34V53.22L30.18 53.1V52.98L30.06 52.86" stroke="white" stroke-width="1.08" stroke-linecap="round" stroke-linejoin="round"/>
<path d="M28.02 47.58H28.26L28.38 47.7H28.5H28.74L28.86 47.82H28.98H29.1H29.22L29.34 47.94H29.46H29.58H29.7H29.82H29.94H30.06H30.18H30.3H30.42H30.54H30.66H30.78H30.9H31.02L31.14 47.82H31.26H31.38V47.7H31.5L31.62 47.58H31.74V47.46H31.86L31.98 47.34H32.1V47.22H32.22V47.1H32.34V46.98H32.46V46.86L32.58 46.74L32.7 46.62L32.82 46.5V46.38H32.94V46.26V46.14H33.06V46.02V45.9L33.18 45.78L33.3 45.66" stroke="white" stroke-width="1.08" stroke-linecap="round" stroke-linejoin="round"/>
<path d="M13.14 42.78V42.9H13.26V43.02H13.38V43.14L13.5 43.26H13.62V43.38H13.74V43.5H13.86L13.98 43.62H14.1V43.74H14.22H14.34L14.46 43.86H14.58L14.7 43.98H14.82L14.94 44.1H15.06H15.18L15.3 44.22H15.42H15.66L15.78 44.34H15.9H16.14" stroke="white" stroke-width="1.08" stroke-linecap="round" stroke-linejoin="round"/>
<path d="M15.66 28.5V28.62V28.74V28.86V28.98V29.1V29.22V29.34V29.46V29.58V29.7L15.78 29.82V29.94V30.06V30.18V30.3H15.9V30.42V30.54V30.66H16.02V30.78V30.9H16.14V31.02V31.14H16.26" stroke="white" stroke-width="1.08" stroke-linecap="round" stroke-linejoin="round"/>
<path d="M15.06 36.18L14.94 36.3H14.82V36.42H14.7H14.58V36.54H14.46L14.34 36.66L14.22 36.78H14.1V36.9H13.98V37.02H13.86V37.14L13.74 37.26L13.62 37.38L13.5 37.5V37.62L13.38 37.74L13.26 37.86V37.98V38.1H13.14V38.22V38.34H13.02" stroke="white" stroke-width="1.08" stroke-linecap="round" stroke-linejoin="round"/>
<path d="M18.18 36.42H18.06H17.94L17.7 36.3H17.58H17.46L17.34 36.18H17.22H16.98H16.86H16.74H16.62L16.5 36.06H16.38H16.26H16.14H16.02H15.9H15.78H15.66H15.54L15.42 36.18H15.3H15.18H15.06" stroke="white" stroke-width="1.08" stroke-linecap="round" stroke-linejoin="round"/>
<path d="M33.18 41.22L33.06 41.1V40.98H32.94V40.86H32.82V40.74H32.7V40.62H32.58L32.46 40.5H32.34V40.38H32.22L32.1 40.26H31.98H31.86V40.14H31.74H31.62L31.5 40.02H31.38H31.26L31.14 39.9H31.02H30.9L30.66 39.78H30.54L30.42 39.66H30.18" stroke="white" stroke-width="1.08" stroke-linecap="round" stroke-linejoin="round"/>
<path d="M33.66 43.86L33.78 43.74V43.62V43.5V43.38V43.26V43.14V43.02V42.9L33.66 42.78V42.66V42.54V42.42V42.3V42.18H33.54V42.06V41.94V41.82H33.42V41.7V41.58L33.3 41.46V41.34H33.18V41.22" stroke="white" stroke-width="1.08" stroke-linecap="round" stroke-linejoin="round"/>
<path d="M31.14 35.94L31.38 36.06H31.5H31.62L31.86 36.18H31.98H32.1H32.22L32.34 36.3H32.46H32.58H32.7H32.82H32.94H33.06H33.18H33.3H33.42H33.54H33.66H33.78H33.9H34.02H34.14L34.26 36.18H34.38H34.5V36.06H34.62H34.74V35.94H34.86L34.98 35.82H35.1V35.7H35.22V35.58H35.34V35.46H35.46L35.58 35.34V35.22H35.7V35.1L35.82 34.98L35.94 34.86V34.74L36.06 34.62V34.5H36.18V34.38V34.26H36.3V34.14V34.02" stroke="white" stroke-width="1.08" stroke-linecap="round" stroke-linejoin="round"/>
<path d="M16.2599 31.14V31.26H16.3799V31.38L16.4999 31.5V31.62H16.6199L16.7399 31.74L16.8599 31.86H16.9799L17.0999 31.98H17.2199V32.1H17.3399L17.4599 32.22H17.5799H17.6999L17.8199 32.34H17.9399L18.0599 32.46H18.1799H18.2999L18.4199 32.58H18.5399H18.7799L18.8999 32.7H19.0199L19.2599 32.82" stroke="white" stroke-width="1.08" stroke-linecap="round" stroke-linejoin="round"/>
<path d="M9.53998 51.78H9.41998V51.9V52.02V52.14V52.26V52.38V52.5V52.62V52.74V52.86L9.53998 52.98V53.1V53.22V53.34V53.46H9.65998V53.58V53.7V53.82L9.77998 53.94V54.06L9.89998 54.18V54.3L10.02 54.42" stroke="white" stroke-width="1.08" stroke-linecap="round" stroke-linejoin="round"/>
<path d="M8.81997 59.46H8.69997V59.58H8.57997H8.45997V59.7H8.33997L8.21997 59.82H8.09997V59.94H7.97997V60.06H7.85997L7.73997 60.18L7.61997 60.3V60.42H7.49997V60.54H7.37997V60.66V60.78H7.25997V60.9H7.13997V61.02V61.14H7.01997V61.26L6.89997 61.38V61.5L6.77997 61.62" stroke="white" stroke-width="1.08" stroke-linecap="round" stroke-linejoin="round"/>
<path d="M12.06 59.7L11.82 59.58H11.7H11.46L11.34 59.46H11.22H11.1H10.98H10.86L10.62 59.34H10.5H10.38H10.26H10.14H10.02H9.90001H9.78001H9.66001H9.54001H9.42001H9.30001H9.18001H9.06001V59.46H8.94001H8.82001" stroke="white" stroke-width="1.08" stroke-linecap="round" stroke-linejoin="round"/>
<path d="M26.94 64.5V64.38L26.82 64.26L26.7 64.14L26.58 64.02L26.46 63.9H26.34V63.78H26.22V63.66H26.1H25.98V63.54H25.86H25.74V63.42H25.62H25.5L25.38 63.3H25.26H25.14L25.02 63.18H24.9H24.78L24.66 63.06H24.42L24.3 62.94H24.18H23.94" stroke="white" stroke-width="1.08" stroke-linecap="round" stroke-linejoin="round"/>
<path d="M27.54 67.14V67.02V66.9V66.78V66.66V66.54V66.42V66.3V66.18V66.06V65.94L27.42 65.82V65.7V65.58V65.46V65.34H27.3V65.22V65.1L27.18 64.98V64.86V64.74H27.06V64.62V64.5H26.94" stroke="white" stroke-width="1.08" stroke-linecap="round" stroke-linejoin="round"/>
<path d="M28.14 59.46L28.26 59.34H28.38L28.5 59.22H28.62V59.1H28.74L28.86 58.98L28.98 58.86H29.1V58.74H29.22V58.62H29.34V58.5H29.46V58.38L29.58 58.26V58.14H29.7V58.02L29.82 57.9V57.78H29.94V57.66V57.54H30.06V57.42V57.3H30.18" stroke="white" stroke-width="1.08" stroke-linecap="round" stroke-linejoin="round"/>
<path d="M24.9 59.22H25.14L25.26 59.34H25.5H25.62H25.74L25.86 59.46H25.98H26.1H26.22H26.34V59.58H26.46H26.58H26.7H26.82H26.94H27.06H27.18H27.3H27.42H27.54H27.66H27.78L27.9 59.46H28.02H28.14" stroke="white" stroke-width="1.08" stroke-linecap="round" stroke-linejoin="round"/>
<path d="M10.02 54.42V54.54H10.14V54.66H10.26V54.78H10.38V54.9H10.5V55.02H10.62L10.74 55.14H10.86V55.26H10.98L11.1 55.38H11.22H11.34V55.5H11.46H11.58L11.7 55.62H11.82L11.94 55.74H12.06H12.18L12.42 55.86H12.54H12.66L12.78 55.98H13.02" stroke="white" stroke-width="1.08" stroke-linecap="round" stroke-linejoin="round"/>
<path d="M55.02 13.86V13.62V13.5V13.26L55.14 13.14V13.02V12.9V12.78L55.26 12.66V12.54V12.42V12.3L55.38 12.18V12.06V11.94H55.5V11.82V11.7L55.62 11.58V11.46H55.74V11.34V11.22H55.86V11.1H55.98V10.98H56.1V10.86" stroke="white" stroke-width="1.08" stroke-linecap="round" stroke-linejoin="round"/>
<path d="M56.1 10.86H56.22V10.74H56.34V10.62H56.46L56.58 10.5H56.7V10.38H56.82H56.94L57.06 10.26H57.18L57.3 10.14H57.42H57.54H57.66V10.02H57.78H57.9H58.02H58.14H58.26H58.38H58.5H58.62H58.74H58.86" stroke="white" stroke-width="1.08" stroke-linecap="round" stroke-linejoin="round"/>
<path d="M48.9 8.21997H49.02L49.14 8.33997H49.26H49.38L49.5 8.45997H49.62L49.74 8.57997L49.86 8.69997H49.98L50.1 8.81997H50.22V8.93997H50.34L50.46 9.05997L50.58 9.17997V9.29997H50.7V9.41997H50.82V9.53997H50.94V9.65997L51.06 9.77997" stroke="white" stroke-width="1.08" stroke-linecap="round" stroke-linejoin="round"/>
<path d="M51.06 9.78V9.9H51.18V10.02V10.14L51.3 10.26V10.38V10.5L51.42 10.62V10.74V10.86V10.98V11.1V11.22V11.34V11.46V11.58V11.7V11.82V11.94V12.06V12.18L51.3 12.3V12.54V12.66V12.78V13.02L51.18 13.14" stroke="white" stroke-width="1.08" stroke-linecap="round" stroke-linejoin="round"/>
<path d="M49.02 25.38V25.5V25.74V25.86L48.9 26.1V26.22V26.34L48.78 26.46V26.58V26.7V26.82L48.66 26.94V27.06V27.18L48.54 27.3V27.42L48.42 27.54V27.66V27.78H48.3V27.9L48.18 28.02V28.14H48.06V28.26H47.94V28.38" stroke="white" stroke-width="1.08" stroke-linecap="round" stroke-linejoin="round"/>
<path d="M47.94 28.38H47.82V28.5H47.7L47.58 28.62H47.46V28.74H47.34L47.22 28.86H47.1L46.98 28.98H46.86H46.74L46.62 29.1H46.5H46.38H46.26L46.14 29.22H46.02H45.9H45.78H45.66H45.54H45.42H45.3H45.18" stroke="white" stroke-width="1.08" stroke-linecap="round" stroke-linejoin="round"/>
<path d="M55.26 31.02H55.14L55.02 30.9H54.9H54.78L54.66 30.78H54.54L54.42 30.66H54.3L54.18 30.54H54.06V30.42H53.94V30.3H53.82L53.7 30.18L53.58 30.06L53.46 29.94H53.34V29.82H53.22V29.7L53.1 29.58V29.46H52.98" stroke="white" stroke-width="1.08" stroke-linecap="round" stroke-linejoin="round"/>
<path d="M52.98 29.46V29.34V29.22H52.86V29.1V28.98H52.74V28.86V28.74V28.62H52.62V28.5V28.38V28.26V28.14V28.02V27.9V27.78V27.66V27.54V27.42V27.3V27.18V27.06L52.74 26.94V26.82V26.7V26.46V26.34V26.22L52.86 25.98" stroke="white" stroke-width="1.08" stroke-linecap="round" stroke-linejoin="round"/>
</g>
<defs>
<clipPath id="clip0_1_96">
<rect width="113.52" height="113.64" fill="white"/>
</clipPath>
</defs>
</svg>
